<svg xmlns="http://www.w3.org/2000/svg" viewBox="0 0 220 40" width="220" height="40">
  <defs>
    <linearGradient id="flowGradient" x1="0%" y1="0%" x2="70.7%" y2="70.7%">
      <stop offset="0%" stop-color="#8b5cf6"/>
      <stop offset="50%" stop-color="#a855f7"/>
      <stop offset="100%" stop-color="#06b6d4"/>
    </linearGradient>
  </defs>
  <!-- "Shorts" in black - text converted to paths -->
  <g fill="#000000">
    <!-- S -->
    <path d="M2.5 25.5c0 2.8 2.2 5.5 7.5 5.5 5.8 0 8.2-2.8 8.2-6 0-3.5-2.5-5-6.5-6l-2.2-.5c-2.2-.5-3-1.2-3-2.3 0-1.3 1.2-2.2 3.2-2.2 2.3 0 3.5 1 3.7 2.8h4.8c-.3-4-3.5-6.5-8.3-6.5-4.8 0-8 2.5-8 6 0 3.3 2.3 5 6 5.8l2.5.6c2.5.5 3.3 1.3 3.3 2.5 0 1.4-1.3 2.3-3.5 2.3-2.5 0-4-1.2-4.2-3h-5z"/>
    <!-- h -->
    <path d="M22 30.5h5V21c0-2.5 1.5-4 3.8-4 2 0 3.2 1.2 3.2 3.5v10h5V19.5c0-4-2.5-6.5-6.5-6.5-2.8 0-4.8 1.3-5.8 3.2V5h-5v25.5z"/>
    <!-- o -->
    <path d="M41 22c0 5.5 4 9 9.2 9s9.2-3.5 9.2-9-4-9-9.2-9-9.2 3.5-9.2 9zm5 0c0-3 1.8-5 4.2-5s4.2 2 4.2 5-1.8 5-4.2 5-4.2-2-4.2-5z"/>
    <!-- r -->
    <path d="M62 30.5h5v-9c0-2.8 1.5-4.2 4-4.2.8 0 1.5.1 2 .2v-4.8c-.4-.1-.9-.2-1.5-.2-2.3 0-4 1.3-4.8 3.5v-3h-5v17.5z"/>
    <!-- t -->
    <path d="M74 30.5h5v-13h3.5v-4H79V9h-5v4.5h-3v4h3v13z"/>
    <!-- s -->
    <path d="M84 25c0 3.5 2.8 6 7.5 6 5 0 7.5-2.5 7.5-5.5 0-3-2-4.5-5.5-5.2l-2-.4c-1.5-.3-2.2-.8-2.2-1.7 0-1 .9-1.7 2.5-1.7 1.8 0 2.8.8 3 2h4.5c-.3-3.3-3-5.5-7.3-5.5-4.3 0-7 2.3-7 5.5 0 3 2 4.5 5.3 5.2l2 .4c1.8.4 2.5.9 2.5 1.8 0 1.1-1 1.8-2.8 1.8-2 0-3.2-.9-3.5-2.3h-5z"/>
  </g>
  <!-- "Flow" with gradient - text converted to paths -->
  <g fill="url(#flowGradient)">
    <!-- F -->
    <path d="M102 30.5h5V22h8v-4h-8v-4h9v-4h-14v20.5z"/>
    <!-- l -->
    <path d="M118 30.5h5V5h-5v25.5z"/>
    <!-- o -->
    <path d="M126 22c0 5.5 4 9 9.2 9s9.2-3.5 9.2-9-4-9-9.2-9-9.2 3.5-9.2 9zm5 0c0-3 1.8-5 4.2-5s4.2 2 4.2 5-1.8 5-4.2 5-4.2-2-4.2-5z"/>
    <!-- w -->
    <path d="M147 30.5h4.5l3.5-12 3.5 12h4.5l5.5-17.5h-5l-3 12-3.5-12h-4l-3.5 12-3-12h-5l5.5 17.5z"/>
  </g>
</svg>
